<svg xmlns="http://www.w3.org/2000/svg" viewBox="0 0 32 32">
    <!-- soil line -->
    <path fill="#8D6E63" d="M6 26h20c.6 0 1 .4 1 1s-.4 1-1 1H6c-.6 0-1-.4-1-1s.4-1 1-1z"/>
    <!-- stem -->
    <path fill="#5E8B23" d="M15 11h2v15h-2z"/>
    <!-- leaves -->
    <path fill="#6FA52F" d="M15 19c-1.5-2-4-3-6.5-3-.6 0-1 .5-.8 1.1.8 2.6 3 4.5 5.7 4.6 1 0 1.8-.5 1.9-1.3.1-.6-.1-1-.3-1.4z"/>
    <path fill="#8BC34A" d="M17 17c1.5-2.2 4.2-3.4 6.9-3.4.6 0 1 .5.8 1.1-.9 2.8-3.2 4.8-6.1 4.9-1 0-1.8-.5-1.9-1.3-.1-.5.1-.9.3-1.3z"/>
    <!-- ripe bud (yellow) -->
    <circle cx="16" cy="8" r="5" fill="#FBC02D"/>
    <circle cx="16" cy="8" r="2.4" fill="#F9A825"/>
</svg>
