<svg xmlns="http://www.w3.org/2000/svg" viewBox="0 0 32 32">
    <!-- soil line -->
    <path fill="#8D6E63" d="M5 25h22c.6 0 1 .4 1 1s-.4 1-1 1H5c-.6 0-1-.4-1-1s.4-1 1-1z"/>
    <!-- center sprout (tall) -->
    <path fill="#5E8B23" d="M15.2 11h1.6v14h-1.6z"/>
    <path fill="#8BC34A" d="M16.8 14c1.3-2 3.6-3 6-2.8.5 0 .8.5.6 1-.8 2.4-2.9 4-5.4 4-.7 0-1.3-.4-1.4-1.1-.1-.4 0-.8.2-1.1z"/>
    <path fill="#6FA52F" d="M15.2 16c-1.3-1.7-3.4-2.6-5.6-2.4-.5 0-.8.5-.6 1 .7 2.1 2.6 3.6 4.9 3.6.7 0 1.2-.4 1.3-1 .1-.4 0-.8 0-1.2z"/>
    <!-- left small sprout -->
    <path fill="#5E8B23" d="M7.5 19h1.4v6H7.5z"/>
    <path fill="#8BC34A" d="M8.9 20.5c-1-1.2-2.6-1.8-4-1.6-.4 0-.6.4-.4.8.6 1.5 2 2.5 3.6 2.4.5 0 .8-.3.9-.8 0-.4-.1-.6-.1-.8z"/>
    <!-- right small sprout -->
    <path fill="#5E8B23" d="M23.1 19h1.4v6h-1.4z"/>
    <path fill="#6FA52F" d="M23.1 20.5c1-1.2 2.6-1.8 4-1.6.4 0 .6.4.4.8-.6 1.5-2 2.5-3.6 2.4-.5 0-.8-.3-.9-.8 0-.4.1-.6.1-.8z"/>
</svg>
