<svg xmlns="http://www.w3.org/2000/svg" viewBox="0 0 32 32">
    <!-- seed body -->
    <path fill="#8D6E63" d="M16 7c4.5 0 8 4.2 8 9.5S20.5 27 16 27 8 21.8 8 16.5 11.5 7 16 7z"/>
    <!-- seed highlight -->
    <path fill="#A1887F" d="M13 12c1.4-1.6 3.2-2.4 4.6-2 .5.1.6.8.2 1.2-1.2 1-2.4 2.4-3.2 4.1-.3.6-1.2.5-1.5-.1-.5-1-.6-2.2-.1-3.2z"/>
    <!-- first green tip breaking out the top -->
    <path fill="#6FA52F" d="M16 8c0-1.8.3-3.4 1.2-4.6.3-.4.9-.2.9.3 0 1.6-.5 3.1-1 4.5z"/>
    <path fill="#8BC34A" d="M17.6 3.2c1.1-.8 2.5-1 3.7-1 .4 0 .6.4.4.7-.6 1.3-1.7 2.3-3.1 2.5-.8.1-1.5-.3-1.6-.9-.1-.6.2-1 .6-1.3z"/>
</svg>
