<svg xmlns="http://www.w3.org/2000/svg" viewBox="0 0 32 32">
  <defs>
    <radialGradient id="body" cx="46%" cy="40%" r="66%">
      <stop offset="0%" stop-color="#79BB3C"/>
      <stop offset="72%" stop-color="#69AB33"/>
      <stop offset="100%" stop-color="#5E9A2D"/>
    </radialGradient>
    <radialGradient id="sheen" cx="44%" cy="36%" r="30%">
      <stop offset="0%" stop-color="#97CE4C" stop-opacity=".28"/>
      <stop offset="100%" stop-color="#97CE4C" stop-opacity="0"/>
    </radialGradient>
  </defs>
  <!-- sprout: stem + connected upright V leaves -->
  <g>
    <path fill="#2E4A12" d="M14.9 13.9c0-2.1.2-3.9.5-5.1c.3-.9 1.0-.9 1.3 0c.3 1.2.5 3.0.5 5.1z"/>
    <path fill="#5E9A2C" d="M15.45 13.6c0-1.7.1-3.1.35-4.1c.1-.4.5-.4.6 0c.25 1.0.35 2.4.35 4.1z"/>
    <g>
    <path fill="#2E4A12" d="M16 8.8 Q14.51 5.16 10.6 4.7 Q12.09 8.34 16 8.8 Z" transform="scale(1.12) translate(-1.71 -0.94)"/>
    <path fill="#79BE3C" d="M16 8.8 Q14.51 5.16 10.6 4.7 Q12.09 8.34 16 8.8 Z"/>
    <line x1="16" y1="8.8" x2="13.30" y2="6.75" stroke="#2E4A12" stroke-width=".4" stroke-linecap="round" opacity=".4"/></g>
    <g>
    <path fill="#2E4A12" d="M16 8.8 Q17.49 5.16 21.4 4.7 Q19.91 8.34 16 8.8 Z" transform="scale(1.12) translate(-1.71 -0.94)"/>
    <path fill="#79BE3C" d="M16 8.8 Q17.49 5.16 21.4 4.7 Q19.91 8.34 16 8.8 Z"/>
    <line x1="16" y1="8.8" x2="18.70" y2="6.75" stroke="#2E4A12" stroke-width=".4" stroke-linecap="round" opacity=".4"/></g>
    <circle cx="16" cy="8.8" r="1.0" fill="#2E4A12"/>
    <circle cx="16" cy="8.8" r="0.6" fill="#5E9A2C"/>
  </g>
  <!-- moss body: v5 cloud silhouette, matte fill -->
  <g fill="#2E4A12"><circle cx="19.42" cy="12.83" r="3"/><circle cx="22.24" cy="14.88" r="3"/><circle cx="23.99" cy="17.90" r="3"/><circle cx="24.35" cy="21.38" r="3"/><circle cx="23.27" cy="24.70" r="3"/><circle cx="20.94" cy="27.30" r="3"/><circle cx="17.75" cy="28.72" r="3"/><circle cx="14.25" cy="28.72" r="3"/><circle cx="11.06" cy="27.30" r="3"/><circle cx="8.73" cy="24.70" r="3"/><circle cx="7.65" cy="21.38" r="3"/><circle cx="8.01" cy="17.90" r="3"/><circle cx="9.76" cy="14.88" r="3"/><circle cx="12.58" cy="12.83" r="3"/></g>
  <circle cx="16" cy="20.5" r="9.9" fill="#2E4A12"/>
  <g fill="#C9DB2E"><circle cx="19.42" cy="12.83" r="2.5"/><circle cx="22.24" cy="14.88" r="2.5"/><circle cx="23.99" cy="17.90" r="2.5"/><circle cx="24.35" cy="21.38" r="2.5"/><circle cx="23.27" cy="24.70" r="2.5"/><circle cx="20.94" cy="27.30" r="2.5"/><circle cx="17.75" cy="28.72" r="2.5"/><circle cx="14.25" cy="28.72" r="2.5"/><circle cx="11.06" cy="27.30" r="2.5"/><circle cx="8.73" cy="24.70" r="2.5"/><circle cx="7.65" cy="21.38" r="2.5"/><circle cx="8.01" cy="17.90" r="2.5"/><circle cx="9.76" cy="14.88" r="2.5"/><circle cx="12.58" cy="12.83" r="2.5"/></g>
  <circle cx="16" cy="20.5" r="9.4" fill="#C9DB2E"/>
  <g fill="url(#body)"><circle cx="19.19" cy="13.33" r="2.15"/><circle cx="21.83" cy="15.25" r="2.15"/><circle cx="23.47" cy="18.07" r="2.15"/><circle cx="23.81" cy="21.32" r="2.15"/><circle cx="22.80" cy="24.42" r="2.15"/><circle cx="20.61" cy="26.85" r="2.15"/><circle cx="17.63" cy="28.18" r="2.15"/><circle cx="14.37" cy="28.18" r="2.15"/><circle cx="11.39" cy="26.85" r="2.15"/><circle cx="9.20" cy="24.43" r="2.15"/><circle cx="8.19" cy="21.32" r="2.15"/><circle cx="8.53" cy="18.07" r="2.15"/><circle cx="10.17" cy="15.25" r="2.15"/><circle cx="12.81" cy="13.33" r="2.15"/></g>
  <circle cx="16" cy="20.5" r="8.850000000000001" fill="url(#body)"/>
  <circle cx="16" cy="20.5" r="8.850000000000001" fill="url(#sheen)"/>
  <!-- face -->
  <g fill="#1C2A0E">
    <ellipse cx="13" cy="20.5" rx="1.5" ry="1.95"/>
    <ellipse cx="19" cy="20.5" rx="1.5" ry="1.95"/>
    <path d="M14.6 22.6c.5.8 2.3.8 2.8 0c.1-.2-.1-.4-.3-.3c-.8.6-1.4.6-2.2 0c-.2-.1-.4.1-.3.3z"/>
  </g>
  <circle cx="13.5" cy="19.75" r=".52" fill="#fff"/>
  <circle cx="19.5" cy="19.75" r=".52" fill="#fff"/>
</svg>