<svg xmlns="http://www.w3.org/2000/svg" viewBox="0 0 32 32">
    <!-- sprout: stem + leaf growing from the moss -->
    <path fill="#5E8B23" d="M16 12.5c0-2.6.4-5 1.6-6.7c.3-.4.9-.2.9.3c0 2.4-.7 4.6-1.5 6.7z"/>
    <path fill="#8BC34A" d="M18.4 4.6c1.6-1.1 3.6-1.4 5.3-1.4c.5 0 .8.5.6 1c-.8 1.9-2.3 3.4-4.4 3.7c-1.2.2-2.2-.4-2.4-1.4c-.2-.9.3-1.4.9-1.9z"/>
    <!-- moss mound body -->
    <path fill="#6FA52F" d="M16 13.5c5.6 0 10 3.9 10 8.7c0 .9-.2 1.8-.5 2.6c-.8 2.1-3 3.7-6 4.3c-1.1.2-2.3.4-3.5.4s-2.4-.2-3.5-.4c-3-.6-5.2-2.2-6-4.3c-.3-.8-.5-1.7-.5-2.6c0-4.8 4.4-8.7 10-8.7z"/>
    <!-- moss bumps along the top edge -->
    <path fill="#86C232" d="M16 13.5c2.5 0 4.8.8 6.5 2.1c-.7 1-1.9 1.6-3.2 1.6c-1.3 0-2.5-.7-3.3-1.7c-.8 1-2 1.7-3.3 1.7c-1.3 0-2.5-.6-3.2-1.6c1.7-1.3 4-2.1 6.5-2.1z"/>
    <!-- eyes -->
    <circle cx="13" cy="22" r="1.5" fill="#2E3D14"/>
    <circle cx="19" cy="22" r="1.5" fill="#2E3D14"/>
    <!-- cheek highlights -->
    <circle cx="10.8" cy="24.5" r="1" fill="#F2A0A0" opacity=".7"/>
    <circle cx="21.2" cy="24.5" r="1" fill="#F2A0A0" opacity=".7"/>
</svg>
